<?xml version="1.0" encoding="iso-8859-1"?>
<!-- Generator: Adobe Illustrator 19.0.0, SVG Export Plug-In . SVG Version: 6.00 Build 0)  -->
<svg version="1.1" id="Layer_1" xmlns="http://www.w3.org/2000/svg" xmlns:xlink="http://www.w3.org/1999/xlink" x="0px" y="0px"
	 viewBox="0 0 512 512" style="enable-background:new 0 0 512 512;" xml:space="preserve">
<circle style="fill:#C2D5D8;" cx="256" cy="256" r="256"/>
<path style="fill:#233540;" d="M511.796,248H174c-26.4,0-50-21.6-50-48v96v179.364C162.548,498.608,207.708,512,256,512
	c141.384,0,256-114.616,256-256C512,253.316,511.884,250.664,511.796,248z"/>
<path style="fill:#1C2A33;" d="M204,506.704c5.264,1.088,10.616,1.968,16,2.728V248h-16V506.704z"/>
<path style="fill:#406A80;" d="M489.916,152H174c-26.4,0-48,21.6-48,48s21.6,48,48,48h337.796
	C510.752,213.896,503.044,181.484,489.916,152z"/>
<rect x="204" y="152" style="fill:#395F73;" width="16" height="96"/>
<path style="fill:#E66356;" d="M172,248h32v-96h-32c-26.4,0-48,21.6-48,48S145.6,248,172,248z"/>
<path style="fill:#F5F5F5;" d="M497.828,172H172c-15.176,0-28,12.824-28,28s12.824,28,28,28h338.444
	C508.336,208.592,504.028,189.856,497.828,172z"/>
<path style="fill:#CC584C;" d="M124,200v96v179.364c24.324,14.668,51.28,25.416,80,31.34V248h-32C145.6,248,124,226.4,124,200z"/>
<path style="opacity:0.4;fill:#152026;enable-background:new    ;" d="M364,352V220c0-6.628,5.372-12,12-12h-80
	c-6.628,0-12,5.372-12,12v132l40-24L364,352z"/>
<path style="fill:#E16B5A;" d="M356,348V216c0-6.628,5.372-12,12-12h-80c-6.628,0-12,5.372-12,12v132l40-24L356,348z"/>
<g>
</g>
<g>
</g>
<g>
</g>
<g>
</g>
<g>
</g>
<g>
</g>
<g>
</g>
<g>
</g>
<g>
</g>
<g>
</g>
<g>
</g>
<g>
</g>
<g>
</g>
<g>
</g>
<g>
</g>
</svg>
